<svg width="30" height="30" viewBox="0 0 30 30" fill="none" xmlns="http://www.w3.org/2000/svg">
<g clip-path="url(#clip0_564_137)">
<path d="M11.4706 4.41165L15 7.94106L15.8823 7.05871L18.5294 4.41165H24.7059L27.3529 7.05871V11.4705V14.1175L22.0588 19.4116L15 25.5881L12.3529 23.8234L7.0588 19.4116L3.52939 14.1175L2.64703 11.4705V8.82341L4.41174 6.17636L7.0588 3.5293L11.4706 4.41165Z" fill="white"/>
<path d="M15 27.0244C14.8158 27.0239 14.6371 26.9623 14.4916 26.8494C9.85828 23.2494 6.66662 20.1494 4.43328 17.0911C1.58328 13.1828 0.933284 9.57443 2.49995 6.36609C3.61662 4.07443 6.82495 2.19943 10.575 3.29109C12.3629 3.80754 13.9229 4.91508 15 6.43276C16.077 4.91508 17.637 3.80754 19.4249 3.29109C23.1666 2.21609 26.3833 4.07443 27.4999 6.36609C29.0666 9.57443 28.4166 13.1828 25.5666 17.0911C23.3333 20.1494 20.1416 23.2494 15.5083 26.8494C15.3628 26.9623 15.1841 27.0239 15 27.0244ZM8.44162 4.64943C7.54933 4.6147 6.66443 4.82363 5.8819 5.2538C5.09938 5.68397 4.44878 6.31913 3.99995 7.09109C2.70828 9.74109 3.29162 12.6911 5.78328 16.0994C8.43126 19.5149 11.532 22.5539 15 25.1328C18.4674 22.5565 21.5681 19.5203 24.2166 16.1078C26.7166 12.6911 27.2916 9.7411 25.9999 7.09943C25.1666 5.43276 22.6666 4.10776 19.8833 4.89109C18.9908 5.15485 18.1635 5.60253 17.4545 6.20532C16.7455 6.80812 16.1705 7.55268 15.7666 8.39109C15.7038 8.54394 15.597 8.67466 15.4598 8.76667C15.3225 8.85867 15.161 8.90779 14.9958 8.90779C14.8305 8.90779 14.669 8.85867 14.5318 8.76667C14.3945 8.67466 14.2877 8.54394 14.225 8.39109C13.8241 7.55059 13.2501 6.80429 12.5407 6.20111C11.8312 5.59794 11.0023 5.15151 10.1083 4.89109C9.5666 4.73376 9.00568 4.65243 8.44162 4.64943Z" fill="#171717"/>
</g>
<defs>
<clipPath id="clip0_564_137">
<rect width="30" height="30" fill="white"/>
</clipPath>
</defs>
</svg>
